<?xml version="1.0" encoding="UTF-8"?>
<!DOCTYPE svg PUBLIC "-//W3C//DTD SVG 1.1//EN" "http://www.w3.org/Graphics/SVG/1.1/DTD/svg11.dtd">
<!-- Creator: CorelDRAW 2020 (64 Bit) -->
<svg xmlns="http://www.w3.org/2000/svg" xml:space="preserve" width="91.44mm" height="91.44mm" version="1.1" style="shape-rendering:geometricPrecision; text-rendering:geometricPrecision; image-rendering:optimizeQuality; fill-rule:evenodd; clip-rule:evenodd"
viewBox="0 0 9144 9144"
 xmlns:xlink="http://www.w3.org/1999/xlink"
 xmlns:xodm="http://www.corel.com/coreldraw/odm/2003">
 <defs>
  <style type="text/css">
   <![CDATA[
    .fil1 {fill:#373435}
    .fil0 {fill:#E6E7E7}
   ]]>
  </style>
 </defs>
 <g id="Camada_x0020_1">
  <metadata id="CorelCorpID_0Corel-Layer"/>
  <g id="_2241335351328">
   <path class="fil0" d="M1735.21 1785.76l4106.79 -0.35c523.32,0 1042.57,86.82 1466,278.35 1563.08,707.03 1326.43,2280.19 547.37,3453.76 -434.4,654.39 -1058.71,1207.32 -1874.64,1605.02 -831.49,405.29 -1765.99,640.31 -2831.13,640.31 -201.65,0.03 -1286.65,7.78 -1395.07,-2.56l1356.19 -4356.48 1515.41 0.67 -1144.37 3679.08c865.23,17.03 1682.83,-432.74 2293.46,-979.36l248.21 -268.05c13.33,-15.11 30.33,-35.92 45.68,-55.91 152.59,-198.76 274.99,-396.55 385.95,-638.4 192.66,-419.91 331.58,-797.81 234.76,-1333.88 -193.84,-1073.14 -1260.26,-952.34 -2321.02,-952.34 -1093.45,0 -2186.9,0 -3283.59,-1.98l650 -1067.88zm-1616.67 2641.24c0,477.08 15.26,771.16 130.39,1232.74 36.44,146.08 77.18,276.6 124.68,408.72 113.1,314.64 256.92,626.32 442.53,903.66 108.23,161.73 216.57,321.99 345.77,467.03 63.85,71.67 121.93,147.92 190.6,215.8 24.8,24.51 43.14,43.06 67.78,67.69l278.98 254.42c26.72,22.61 44.71,39.71 72.93,62.54 332.61,269.11 699.53,483.82 1094.43,649.7 129.95,54.59 259.26,104.35 397.92,143.94 650.19,185.65 1268.5,245.92 1943.95,150.32 706.82,-100.04 1342.23,-368.38 1927.31,-765.09 158.43,-107.42 310.14,-231.94 448.03,-364.76 77.48,-74.63 167.13,-145.39 236.86,-228.81l394.35 -486.19c158.27,-211.29 276.76,-444.33 395.58,-679.68 59.68,-118.22 112.21,-249.58 155.49,-377.92 12.72,-37.73 22.97,-60.19 36.05,-99.41 133.24,-399.62 223.29,-837.55 223.29,-1266.84 0,-268.77 -4.06,-520.64 -40.83,-780.43 -51.06,-360.76 -144.16,-729.2 -289.15,-1057.05 -80.67,-182.43 -163.15,-368.99 -265.35,-538.98 -141.87,-235.95 -294.83,-467.94 -477.95,-673.51l-160.69 -177.98c-24.8,-24.51 -43.14,-43.06 -67.78,-67.69l-582.85 -492.41c-54.73,-37.82 -103.12,-68.43 -157.53,-104.94 -261.25,-175.25 -598.39,-342.97 -901.15,-445.06 -134.84,-45.46 -272.88,-92 -414.58,-127.27 -551.69,-137.35 -1164.49,-171.57 -1732.1,-91.24 -706.82,100.04 -1342.23,368.38 -1927.31,765.09 -53.85,36.51 -103.02,76.72 -155.22,115.72l-292.81 249.04c-77.48,74.63 -167.13,145.39 -236.86,228.81l-157.43 181.24c-166.81,197.16 -312.38,408.46 -445.72,629.55 -103.16,171.08 -188.15,351.23 -266.52,537.81 -28.33,67.44 -51.43,123.07 -75.75,195.19l-67.79 203.13c-116.58,357.99 -191.55,778.41 -191.55,1163.12z"/>
   <path class="fil1" d="M1085.21 2853.64c1096.69,1.98 2190.14,1.98 3283.59,1.98 1060.76,0 2127.18,-120.8 2321.02,952.34 96.82,536.07 -42.1,913.97 -234.76,1333.88 -110.96,241.85 -233.36,439.64 -385.95,638.4 -15.35,19.99 -32.35,40.8 -45.68,55.91l-248.21 268.05c-610.63,546.62 -1428.23,996.39 -2293.46,979.36l1144.37 -3679.08 -1515.41 -0.67 -1356.19 4356.48c108.42,10.34 1193.42,2.59 1395.07,2.56 1065.14,0 1999.64,-235.02 2831.13,-640.31 815.93,-397.7 1440.24,-950.63 1874.64,-1605.02 779.06,-1173.57 1015.71,-2746.73 -547.37,-3453.76 -423.43,-191.53 -942.68,-278.35 -1466,-278.35l-4106.79 0.35 -650 1067.88z"/>
  </g>
 </g>
</svg>
